# xmcd
# 
# Track frame offsets:
#     150
#     10387
#     26081
#     43859
#     69568
#     90308
#     111272
#     131674
#     158373
#     179686
#     209359
#     232191
# 
# Disc length: 3323
# 
# Revision: 4
# Processed by: cddbd v1.5.2PL0 Copyright (c) Steve Scherf et al.
# Submitted via: BonkEnc v1.0.8
# 
DISCID=a40cf90c
DTITLE=Friend 'n Fellow - live [CD2)
DYEAR=2003
DGENRE=Jazz
TTITLE0=Can't buy me love
TTITLE1=Naked in a jacket
TTITLE2=It makes no difference
TTITLE3=House with 6 rooms
TTITLE4=Grandma's hand
TTITLE5=September
TTITLE6=Summertime
TTITLE7=Unhurt world
TTITLE8=Taxi
TTITLE9=Home
TTITLE10=I still haven't found what I'm looking for
TTITLE11=Angel
EXTD=
EXTT0=
EXTT1=
EXTT2=
EXTT3=
EXTT4=
EXTT5=
EXTT6=
EXTT7=
EXTT8=
EXTT9=
EXTT10=
EXTT11=
PLAYORDER=
